<svg xmlns="http://www.w3.org/2000/svg" xmlns:xlink="http://www.w3.org/1999/xlink" viewBox="0 0 128 128"><path fill="#fff" d="M111 124L111 14 91 14 91 124M39 124L39 64 19 64 19 124M75 124L75 74 55 74 55 124"/><path fill="#444b54" d="M111,127c-1.7,0-3-1.3-3-3V17H94v107c0,1.7-1.3,3-3,3s-3-1.3-3-3V14c0-1.7,1.3-3,3-3h20c1.7,0,3,1.3,3,3v110C114,125.7,112.7,127,111,127z"/><path fill="#71c2ff" d="M39 127c-1.7 0-3-1.3-3-3V67H22v57c0 1.7-1.3 3-3 3s-3-1.3-3-3V64c0-1.7 1.3-3 3-3h20c1.7 0 3 1.3 3 3v60C42 125.7 40.7 127 39 127zM75 127c-1.7 0-3-1.3-3-3V77H58v47c0 1.7-1.3 3-3 3s-3-1.3-3-3V74c0-1.7 1.3-3 3-3h20c1.7 0 3 1.3 3 3v50C78 125.7 76.7 127 75 127z"/><path fill="#444b54" d="M111,127c-1.7,0-3-1.3-3-3V17H94v107c0,1.7-1.3,3-3,3s-3-1.3-3-3V14c0-1.7,1.3-3,3-3h20c1.7,0,3,1.3,3,3v110C114,125.7,112.7,127,111,127z"/><path fill="#71c2ff" d="M39 127c-1.7 0-3-1.3-3-3V67H22v57c0 1.7-1.3 3-3 3s-3-1.3-3-3V64c0-1.7 1.3-3 3-3h20c1.7 0 3 1.3 3 3v60C42 125.7 40.7 127 39 127zM75 127c-1.7 0-3-1.3-3-3V77H58v47c0 1.7-1.3 3-3 3s-3-1.3-3-3V74c0-1.7 1.3-3 3-3h20c1.7 0 3 1.3 3 3v50C78 125.7 76.7 127 75 127z"/><path fill="#444b54" d="M111,127c-1.7,0-3-1.3-3-3V17H94v107c0,1.7-1.3,3-3,3s-3-1.3-3-3V14c0-1.7,1.3-3,3-3h20c1.7,0,3,1.3,3,3v110C114,125.7,112.7,127,111,127z"/><g><path fill="#71c2ff" d="M121,127H9c-1.7,0-3-1.3-3-3s1.3-3,3-3h112c1.7,0,3,1.3,3,3S122.7,127,121,127z"/></g></svg>