<svg xmlns="http://www.w3.org/2000/svg" xmlns:xlink="http://www.w3.org/1999/xlink" viewBox="0 0 128 128"><path fill="#fff" d="M64,120.7L64,120.7c-16.8,0-30.5-13.7-30.5-30.5V55.7h61v34.5C94.5,107,80.8,120.7,64,120.7z"/><path fill="#e6e6ef" d="M33.5,60.2c0,0,11.5,0.1,20.5,0.1c5.5,0,10,4.5,10,10l0.1,20.4c0,2.2,1.8,4,4,4h0l1.1,8l-2.1,4h-7l4,2l-0.1,12h0c16.8,0,30.5-13.7,30.5-30.5V55.7h-61V60.2z"/><path fill="#fff" d="M50 75.3A7.5 7.5 0 1 0 50 90.3 7.5 7.5 0 1 0 50 75.3zM78 75.3A7.5 7.5 0 1 0 78 90.3 7.5 7.5 0 1 0 78 75.3z"/><path fill="#444b54" d="M50 79.8A3 3 0 1 0 50 85.8 3 3 0 1 0 50 79.8zM78 79.8A3 3 0 1 0 78 85.8 3 3 0 1 0 78 79.8zM69.2 102.7H58.8c-2.1 0-3.5-2.1-2.8-4.1l.8-2c.4-1.2 1.6-1.9 2.8-1.9h8.8c1.3 0 2.4.8 2.8 1.9l.8 2C72.7 100.6 71.3 102.7 69.2 102.7zM44.3 74.4c-1.1 0-2.2-.7-2.7-1.8-.7-1.5 0-3.3 1.5-4 3.9-1.8 8.5-1.8 12.4-.2 1.5.6 2.2 2.4 1.6 3.9-.6 1.5-2.4 2.2-3.9 1.6-2.4-1-5.2-1-7.6.1C45.2 74.3 44.8 74.4 44.3 74.4zM73 74.4c-1.1 0-2.2-.7-2.7-1.8-.7-1.5 0-3.3 1.5-4 3.9-1.8 8.5-1.8 12.4-.2 1.5.6 2.2 2.4 1.6 3.9-.6 1.5-2.4 2.2-3.9 1.6-2.4-1-5.2-1-7.6.1C73.8 74.3 73.4 74.4 73 74.4z"/><g><path fill="#fff" d="M31.5,49.7H49c1.7,0,3-1.3,3-3s-1.3-3-3-3H31.5L31.5,49.7z"/><path fill="#444b54" d="M23.7,65.1l6,11.9c1.1,2.2,4.5,1.5,4.5-1c0-1.3,1.1-2.3,2.4-2.3c1,0,1.9-0.6,2.2-1.6l0.5-1.6c0.6-1.7,0.1-3.6-1.1-4.8l-0.3-0.3c-1.1-1.1-1.7-2.5-1.7-4v0c0-3.1,2.5-5.6,5.5-5.6H29.5C24.7,55.7,21.5,60.7,23.7,65.1z"/></g><g><path fill="#444b54" d="M103.7,54.7c0.5-0.5,0.8-1.2,0.8-2c0-1.7-1.3-3-3-3h-5V37.2C96.5,19.2,81.9,4.7,64,4.7h0c-17.9,0-32.5,14.6-32.5,32.5v6.5H49c1.7,0,3,1.3,3,3s-1.3,3-3,3H26.5c-1.7,0-3,1.3-3,3s1.3,3,3,3h15.3c0,0,0,0,0,0H64l-0.4,0h20.2c0.3,1.9,0.3,3.9-0.1,5.8c-0.1,0.7-0.2,1.4,0,2.2c0.4,2.6,2.5,4.6,5.1,4.9c1.6,0.2,3.1-0.2,4.2-1c0.4-0.3,1-0.3,1.3,0.1c0.6,0.7,1.6,1.1,2.7,0.9c1.2-0.2,2.2-1.1,2.5-2.3c0.1-0.6,0.1-1.1-0.1-1.6c-0.2-0.5,0.2-1.1,0.7-1.3c2.9-0.8,5-3.8,4.3-7.1C104.2,55.8,104,55.2,103.7,54.7z M95.5,62.9C95.5,62.9,95.5,62.9,95.5,62.9C95.5,62.9,95.5,62.9,95.5,62.9C95.5,62.9,95.5,62.9,95.5,62.9z"/></g></svg>