<svg xmlns="http://www.w3.org/2000/svg" xmlns:xlink="http://www.w3.org/1999/xlink" viewBox="0 0 128 128"><path fill="#FFF" d="M17 18H106V74H17z"/><path fill="#ED97A0" d="M14 57H109V63H14zM59 29H109V35H59zM59 43H109V49H59z"/><path fill="#98BED8" d="M17 18H62V49H17z"/><path fill="#454B54" d="M106,77H17c-1.7,0-3-1.3-3-3V18c0-1.7,1.3-3,3-3h89c1.7,0,3,1.3,3,3v56C109,75.7,107.7,77,106,77z M20,71h83V21H20V71z"/><path fill="#FFF" d="M31 30c-.8 0-1.6-.3-2.1-.9C28.3 28.6 28 27.8 28 27s.3-1.6.9-2.1c1.1-1.1 3.1-1.1 4.2 0 .6.6.9 1.3.9 2.1s-.3 1.6-.9 2.1C32.6 29.7 31.8 30 31 30zM41 37c-.8 0-1.6-.3-2.1-.9C38.3 35.6 38 34.8 38 34s.3-1.6.9-2.1c1.1-1.1 3.1-1.1 4.2 0 .6.6.9 1.3.9 2.1s-.3 1.6-.9 2.1C42.6 36.7 41.8 37 41 37zM51 30c-.8 0-1.6-.3-2.1-.9C48.3 28.6 48 27.8 48 27s.3-1.6.9-2.1c1.1-1.1 3.1-1.1 4.2 0 .6.6.9 1.3.9 2.1s-.3 1.6-.9 2.1C52.6 29.7 51.8 30 51 30zM31 45c-.8 0-1.6-.3-2.1-.9C28.3 43.6 28 42.8 28 42s.3-1.6.9-2.1c1.1-1.1 3.1-1.1 4.2 0 .6.6.9 1.3.9 2.1s-.3 1.6-.9 2.1C32.6 44.7 31.8 45 31 45zM51 45c-.8 0-1.6-.3-2.1-.9C48.3 43.6 48 42.8 48 42s.3-1.6.9-2.1c1.1-1.1 3.1-1.1 4.2 0 .6.6.9 1.3.9 2.1s-.3 1.6-.9 2.1C52.6 44.7 51.8 45 51 45z"/><path fill="#454B54" d="M17,110c-1.7,0-3-1.3-3-3V70c0-1.7,1.3-3,3-3s3,1.3,3,3v37C20,108.7,18.7,110,17,110z"/></svg>